<svg width="600" height="320" viewBox="0 0 600 320" xmlns="http://www.w3.org/2000/svg">
  <defs>
    <linearGradient id="b" x1="0" x2="1">
      <stop stop-color="#62b6ff"/><stop offset="1" stop-color="#0b6cff"/>
    </linearGradient>
  </defs>
  <rect width="600" height="320" rx="40" fill="#020617"/>
  <ellipse cx="300" cy="260" rx="210" ry="26" fill="#000" opacity=".4"/>
  <path d="M80 190c30-60 130-110 260-110 70 0 120 10 160 18 14 3 24 19 24 30 0 36-32 38-52 38H180c-26 0-38 2-46 8-8 7-24 5-22-4l4-12z" fill="url(#b)"/>
  <circle cx="195" cy="230" r="32" fill="#020617"/><circle cx="195" cy="230" r="20" fill="#e5f0ff"/>
  <circle cx="430" cy="230" r="32" fill="#020617"/><circle cx="430" cy="230" r="20" fill="#e5f0ff"/>
</svg>