
<svg width="600" height="360" viewBox="0 0 600 360" xmlns="http://www.w3.org/2000/svg">
  <defs><linearGradient id="b" x1="0" x2="1">
    <stop stop-color="#62b6ff"/><stop offset="1" stop-color="#0b6cff"/></linearGradient>
    <filter id="glow" x="-20%" y="-20%" width="140%" height="140%"><feGaussianBlur stdDeviation="6" result="b"/><feMerge><feMergeNode in="b"/><feMergeNode in="SourceGraphic"/></feMerge></filter>
  </defs>
  <g filter="url(#glow)">
    <ellipse cx="290" cy="290" rx="220" ry="26" fill="#000" opacity=".25"/>
    <path d="M68 205c36-60 140-100 260-100 62 0 116 9 156 16 15 3 24 17 24 32 0 38-34 40-54 40H168c-28 0-42 2-50 9-8 7-25 5-22-6l2-5z" fill="url(#b)"/>
    <circle cx="196" cy="245" r="30" fill="#0b1220"/><circle cx="196" cy="245" r="18" fill="#d9eafc"/>
    <circle cx="430" cy="245" r="30" fill="#0b1220"/><circle cx="430" cy="245" r="18" fill="#d9eafc"/>
  </g>
  <g opacity=".6"><circle cx="470" cy="120" r="36" fill="url(#b)"/><circle cx="520" cy="140" r="22" fill="url(#b)"/><circle cx="560" cy="120" r="16" fill="url(#b)"/></g>
</svg>
