
<svg width="200" height="60" viewBox="0 0 200 60" xmlns="http://www.w3.org/2000/svg" role="img" aria-label="Logótipo RCO">
  <defs>
    <linearGradient id="g" x1="0" x2="1" y1="0" y2="1">
      <stop stop-color="#5db1ff"/><stop offset="1" stop-color="#0b6cff"/>
    </linearGradient>
  </defs>
  <!-- Bolhas / barra estilizada - sem texto para evitar duplicação com o título ao lado -->
  <g fill="url(#g)">
    <circle cx="22" cy="28" r="10" opacity=".25"/>
    <circle cx="36" cy="22" r="8" opacity=".35"/>
    <circle cx="50" cy="26" r="6" opacity=".35"/>
  </g>
  <rect x="10" y="36" width="64" height="6" rx="3" fill="#0b6cff" opacity=".4"/>
  <path d="M9 30c8-9 22-14 42-14 10 0 19 1 25 2 2 1 4 4 4 6 0 8-8 8-12 8H26c-7 0-10 1-12 3-2 2-6 1-5-2l0-1z" fill="url(#g)"/>
</svg>
